<svg xmlns="http://www.w3.org/2000/svg" xmlns:xlink="http://www.w3.org/1999/xlink" width="165.606" height="29.456" viewBox="0 0 165.606 29.456"><g fill="#FFF"><path d="M10.503 20.997c-.995-.016-1.801-.123-2.421-.321s-1.109-.478-1.469-.838a2.76 2.76 0 0 1-.734-1.308 7.07 7.07 0 0 1-.195-1.733V3.508l3.419-.551v13.15c0 .307.023.582.069.826.046.245.134.452.264.62.13.168.317.306.562.413s.574.176.987.206l-.482 2.825zM19.889 8.375c1.01 0 1.851.114 2.525.344.673.229 1.212.559 1.618.987.405.428.692.948.861 1.561.168.611.252 1.293.252 2.042v7.114c-.49.107-1.17.234-2.042.379-.872.146-1.928.219-3.167.219-.78 0-1.488-.069-2.123-.207-.635-.138-1.182-.363-1.641-.677s-.811-.724-1.056-1.229c-.245-.505-.367-1.124-.367-1.858 0-.704.141-1.301.425-1.79.283-.489.662-.88 1.136-1.171.474-.29 1.018-.501 1.629-.631s1.247-.195 1.905-.195c.444 0 .838.02 1.182.058s.623.088.838.149v-.321c0-.581-.176-1.048-.528-1.4-.353-.352-.964-.527-1.836-.527-.582 0-1.155.042-1.721.126s-1.056.203-1.469.355l-.436-2.754c.199-.061.448-.126.746-.195.298-.068.623-.13.975-.184.352-.053.723-.099 1.113-.138.39-.039.783-.057 1.181-.057zm.276 10.005c.336 0 .658-.008.964-.023.306-.015.551-.038.734-.068v-2.594a6.62 6.62 0 0 0-.62-.092 6.8 6.8 0 0 0-1.664.012 2.364 2.364 0 0 0-.746.218c-.214.107-.382.253-.505.437s-.184.413-.184.688c0 .535.18.906.54 1.113.36.206.853.309 1.481.309zM40.843 20.354c-.582.169-1.331.325-2.249.471-.918.145-1.882.218-2.892.218-1.025 0-1.878-.138-2.559-.413-.681-.275-1.22-.661-1.618-1.159-.398-.497-.681-1.09-.849-1.778s-.252-1.446-.252-2.272V8.696h3.419v6.311c0 1.102.146 1.897.436 2.387.291.49.834.734 1.629.734.245 0 .505-.011.781-.034.275-.022.52-.05.734-.08V8.696h3.419v11.658zM46.351 9.109c.582-.169 1.331-.325 2.249-.471s1.882-.218 2.892-.218c1.025 0 1.878.134 2.559.401s1.22.646 1.618 1.136c.397.49.681 1.071.849 1.744a9.3 9.3 0 0 1 .252 2.249v6.816h-3.419v-6.403c0-1.102-.146-1.882-.436-2.341-.291-.459-.834-.688-1.63-.688-.245 0-.505.012-.78.034-.275.023-.52.05-.734.081v9.317h-3.419V9.109zM72.812 20.376c-.306.092-.658.181-1.056.265a19.06 19.06 0 0 1-1.251.218c-.436.061-.88.11-1.331.149-.452.038-.883.058-1.296.058-.995 0-1.882-.146-2.663-.437s-1.438-.707-1.974-1.251a5.418 5.418 0 0 1-1.228-1.974c-.284-.772-.425-1.641-.425-2.604 0-.979.123-1.862.367-2.651.245-.787.597-1.457 1.056-2.008s1.021-.972 1.687-1.262c.666-.291 1.426-.437 2.283-.437.474 0 .899.046 1.274.138.375.092.753.222 1.136.391V3.508l3.419-.551v17.419zm-7.735-5.737c0 1.056.237 1.905.711 2.548s1.178.964 2.112.964c.306 0 .588-.012.849-.034.26-.023.474-.05.643-.081v-6.219c-.215-.138-.494-.253-.838-.345s-.692-.138-1.044-.138c-1.622 0-2.433 1.102-2.433 3.305zM85.595 11.725c-.307-.077-.666-.157-1.079-.241s-.857-.126-1.332-.126c-.214 0-.47.019-.769.057a4.6 4.6 0 0 0-.677.127v9.226h-3.419V9.338a20.29 20.29 0 0 1 2.169-.608c.833-.191 1.763-.287 2.788-.287.184 0 .405.012.666.034a13.806 13.806 0 0 1 1.56.23c.26.054.482.119.666.195l-.573 2.823zM101.752 8.696a106.568 106.568 0 0 1-2.163 6.54 79.126 79.126 0 0 1-2.462 5.922 13.547 13.547 0 0 1-.965 1.755 5.39 5.39 0 0 1-1.057 1.193 3.725 3.725 0 0 1-1.299.688c-.482.146-1.045.219-1.689.219-.536 0-1.031-.05-1.482-.149a6.673 6.673 0 0 1-1.115-.333l.597-2.73c.352.122.666.206.941.252s.566.069.873.069c.612 0 1.083-.165 1.412-.494s.608-.784.838-1.365a68.102 68.102 0 0 1-2.342-5.152c-.781-1.905-1.516-4.043-2.204-6.414h3.626c.154.597.334 1.243.542 1.938a88.27 88.27 0 0 0 1.36 4.188c.238.674.465 1.285.68 1.836a51.41 51.41 0 0 0 .622-1.836 86.93 86.93 0 0 0 .634-2.077c.207-.711.407-1.415.599-2.111.192-.695.365-1.342.519-1.938h3.535zM116.163 20.376c-.306.092-.657.181-1.056.265-.397.084-.814.156-1.25.218-.437.061-.881.11-1.331.149a15.51 15.51 0 0 1-1.297.058c-.995 0-1.882-.146-2.662-.437s-1.438-.707-1.974-1.251c-.536-.543-.945-1.201-1.229-1.974s-.424-1.641-.424-2.604c0-.979.122-1.862.367-2.651.244-.787.597-1.457 1.056-2.008s1.021-.972 1.687-1.262c.665-.291 1.427-.437 2.283-.437.475 0 .898.046 1.274.138.374.092.753.222 1.136.391V3.508l3.419-.551v17.419zm-7.733-5.737c0 1.056.236 1.905.711 2.548s1.178.964 2.111.964c.306 0 .589-.012.85-.034.26-.023.474-.05.643-.081v-6.219a2.97 2.97 0 0 0-.838-.345 4.024 4.024 0 0 0-1.044-.138c-1.623 0-2.433 1.102-2.433 3.305zM128.946 11.725c-.307-.077-.666-.157-1.079-.241s-.856-.126-1.331-.126c-.214 0-.471.019-.769.057a4.574 4.574 0 0 0-.677.127v9.226h-3.42V9.338c.611-.215 1.335-.417 2.169-.608s1.763-.287 2.788-.287c.184 0 .405.012.666.034a13.806 13.806 0 0 1 1.56.23c.26.054.481.119.665.195l-.572 2.823zM144.689 14.708c0 .948-.138 1.816-.413 2.604s-.673 1.461-1.193 2.02c-.52.559-1.144.991-1.87 1.297s-1.542.459-2.444.459c-.888 0-1.694-.153-2.421-.459s-1.351-.738-1.87-1.297a5.912 5.912 0 0 1-1.217-2.02c-.291-.788-.436-1.656-.436-2.604s.148-1.813.447-2.594a5.875 5.875 0 0 1 1.239-1.996 5.552 5.552 0 0 1 1.882-1.285 6.043 6.043 0 0 1 2.375-.459c.872 0 1.672.152 2.398.459a5.427 5.427 0 0 1 1.87 1.285 5.828 5.828 0 0 1 1.217 1.996c.291.781.436 1.646.436 2.594zm-3.488 0c0-1.056-.21-1.886-.631-2.49s-1.021-.906-1.802-.906-1.385.302-1.813.906c-.429.604-.643 1.435-.643 2.49s.214 1.894.643 2.513c.428.62 1.032.93 1.813.93s1.381-.31 1.802-.93c.421-.619.631-1.457.631-2.513zM160.824 14.731c0 .934-.115 1.783-.345 2.548s-.565 1.423-1.01 1.974a4.548 4.548 0 0 1-1.652 1.285c-.657.306-1.415.459-2.271.459a6.11 6.11 0 0 1-2.524-.529v4.545h-3.42V9.109c.306-.092.658-.18 1.056-.265a18.83 18.83 0 0 1 1.251-.218c.436-.061.88-.11 1.331-.149.451-.038.884-.057 1.297-.057.994 0 1.882.148 2.662.447.78.298 1.438.719 1.974 1.262.535.544.944 1.205 1.228 1.985s.423 1.653.423 2.617zm-3.488.092c0-1.056-.237-1.9-.712-2.536-.475-.634-1.178-.952-2.111-.952-.306 0-.589.012-.849.034-.261.023-.475.05-.643.081v6.173c.214.138.493.253.837.345.345.092.692.138 1.045.138 1.621-.001 2.433-1.095 2.433-3.283z"/></g><path fill="#E5EEF1" d="M142.278 8.984l-3.445-3.912-3.358 3.813c-1.313 1.446-3.226 3.238-3.226 5.642a6.548 6.548 0 0 0 13.094 0c0-2.336-1.527-3.899-3.065-5.543"/><defs><path id="a" d="M135.475 8.884c-1.313 1.447-3.226 3.238-3.226 5.642a6.547 6.547 0 1 0 13.094 0c0-2.335-1.527-3.897-3.064-5.543l-3.445-3.912-3.359 3.813z"/></defs><clipPath id="b"><use xlink:href="#a" overflow="visible"/></clipPath><path clip-path="url(#b)" fill="#CBDFE5" d="M160.729 9.254c-5.762.802-8.494.433-11.87-.627s-5.394-.441-9.311.938c-3.916 1.38-9.294-.959-13.345-.959-4.053 0-6.476 1.402-9.341 1.402v2.938h43.85l.017-3.692z"/><path clip-path="url(#b)" fill="#A2C6D0" d="M160.723 11.345c-1.037-.569-2.652-1.268-4.595-1.227-2.036.043-2.526.833-4.913 1.015-2.505.188-2.832-.627-5.46-.546-3.024.093-3.169 1.185-5.688 1.179-3.11-.009-3.548-1.678-6.606-1.692-2.823-.013-3.123 1.405-5.917 1.339-2.768-.064-3.513-1.482-6.211-1.499-1.956-.012-3.475.722-4.469 1.276v2.926h43.865l-.006-2.771z"/><path clip-path="url(#b)" fill="#7AADBC" d="M160.714 12.731c-2.104-.884-3.934-1.165-5.426-1.019-2.129.211-2.477 1.186-4.501 1.268-2.329.094-3.101-1.143-5.387-1.049-2.281.092-2.593 1.368-4.718 1.42-2.354.057-3.023-1.484-5.527-1.514-2.604-.028-3.513 1.617-6.002 1.514-1.86-.077-3.682-1.285-5.656-1.615-1.535-.257-2.483.131-6.634 1.77v2.54h43.851v-3.315z"/><path clip-path="url(#b)" fill="#5294A7" d="M160.729 15.986c-1.497-1.232-3.713-2.622-6.223-2.489-2.603.138-3.147 1.799-5.95 2.02-3.467.273-4.51-2.114-7.907-1.871-3.259.235-3.917 1.937-6.555 1.737-2.671-.201-3.113-2.045-5.54-2.071-2.328-.024-3.006 1.674-5.595 1.944-1.484.156-3.464.201-6.097-2.024v4.276h43.853l.014-1.522z"/><path clip-path="url(#b)" fill="#297C93" d="M116.863 15.469c1.345.726 3.187 1.479 5.237 1.276 2.04-.202 2.365-1.169 4.34-1.314 2.751-.202 3.469 1.575 6.349 1.535 2.603-.036 2.791-1.499 5.544-1.633 2.9-.14 3.458 1.445 6.526 1.376 2.786-.063 2.968-1.384 5.633-1.344 2.672.04 3.451 1.383 6.161 1.376 1.763-.004 3.184-.577 4.061-1.024v3.544h-43.851v-3.792z"/><path clip-path="url(#b)" fill="#006380" d="M116.884 18.306c1.037-.568 2.652-1.265 4.595-1.224 2.035.042 2.526.834 4.913 1.015 2.505.189 2.832-.627 5.46-.546 3.024.094 3.169 1.187 5.689 1.179 3.109-.008 3.547-1.677 6.605-1.69 2.823-.013 3.123 1.405 5.917 1.339 2.768-.065 3.498-1.483 6.197-1.499 1.955-.012 3.518.721 4.454 1.276v2.918h-43.837l.007-2.768z"/></svg>