<svg xmlns="http://www.w3.org/2000/svg" xmlns:xlink="http://www.w3.org/1999/xlink" width="73.701" height="73.701" viewBox="0 0 73.701 73.701"><path fill="#0084A9" d="M0 0h73.701v73.701H0z"/><g fill="#FFF"><path d="M17.681 58.702h-2.076v-6.194l-2.03 4.03h-1.402l-2.046-4.03v6.194H8.052V48.073h2.045l2.776 5.748 2.763-5.748h2.045z"/><path fill-rule="evenodd" clip-rule="evenodd" d="M35.225 58.702h-2.164l-.628-1.88h-3.776l-.642 1.88H25.85l3.867-10.629h1.627l3.881 10.629zm-3.344-3.627l-1.298-3.865-1.345 3.865h2.643z"/><path d="M50.647 58.702h-6.896V48.073h2.075v8.778h4.821zM66.05 58.702h-6.898V48.073h2.076v8.778h4.822z"/></g><defs><path id="a" d="M.001 0h73.7v73.701H.001z"/></defs><clipPath id="b"><use xlink:href="#a" overflow="visible"/></clipPath><path clip-path="url(#b)" fill="#009FBF" d="M49.414 4.293h15.958a3.683 3.683 0 0 1 3.682 3.683v15.958a3.682 3.682 0 0 1-3.682 3.683H49.414a3.684 3.684 0 0 1-3.684-3.683V7.976a3.684 3.684 0 0 1 3.684-3.683"/><path clip-path="url(#b)" fill="#FFF" d="M57.108 8.426l2.137 5.396 5.16-1.664.288 1.008-4.467 3.684 3.199 4.393-.919.626-4.882-3.142-3.156 4.435-1.17-.941 1.766-5.371-5.16-1.664.417-1.244 5.726-.12V8.447z"/><g fill="#FFF"><path fill-rule="evenodd" clip-rule="evenodd" d="M9.841 64.033c.002.112-.001.23-.007.357s-.025.25-.059.369a.707.707 0 0 1-.171.302c-.147.146-.351.221-.607.222h-.816v-2.432h.816c.257.002.46.077.607.224.08.084.138.177.171.284.033.106.053.22.059.335s.009.23.007.339m-.185 0c.001-.091 0-.188-.004-.291-.004-.103-.02-.2-.043-.295a.557.557 0 0 0-.375-.391.933.933 0 0 0-.282-.039h-.587v2.103h.587a.9.9 0 0 0 .282-.04.59.59 0 0 0 .241-.147.58.58 0 0 0 .134-.26c.023-.106.039-.217.043-.33.004-.114.005-.217.004-.31"/><path d="M8.998 65.412h-.946v-2.689h.945c.293.002.527.091.699.259a.88.88 0 0 1 .202.339c.036.116.059.239.064.367.006.118.009.235.008.348a6.69 6.69 0 0 1-.008.363 1.741 1.741 0 0 1-.063.396.824.824 0 0 1-.2.356c-.176.173-.412.26-.701.261zm-.504-.422h.46a.8.8 0 0 0 .24-.033.459.459 0 0 0 .188-.117.431.431 0 0 0 .1-.198c.023-.099.037-.2.041-.304.003-.111.004-.211.003-.303.001-.093 0-.188-.003-.286a1.312 1.312 0 0 0-.04-.269.433.433 0 0 0-.103-.188.456.456 0 0 0-.186-.114.819.819 0 0 0-.235-.033h-.465v1.845z"/><path fill-rule="evenodd" clip-rule="evenodd" d="M13.612 65.283h-.214l-.581-1.119h-.669v1.119h-.186v-2.432h.926a.744.744 0 0 1 .497.169c.129.109.195.271.2.484a.66.66 0 0 1-.151.441.68.68 0 0 1-.409.214l.587 1.124zm-.211-1.776c-.003-.167-.053-.29-.151-.372a.58.58 0 0 0-.385-.119h-.717V64h.717c.159 0 .286-.041.385-.121s.148-.205.151-.372"/><path d="M13.827 65.412h-.508l-.581-1.119h-.461v1.119h-.442v-2.689h1.054c.234.001.43.067.582.199.156.134.239.329.245.579a.777.777 0 0 1-.186.53.76.76 0 0 1-.314.213l.611 1.168zm-1.55-1.542h.588a.45.45 0 0 0 .303-.092c.067-.055.102-.144.104-.272-.002-.125-.036-.214-.104-.27a.448.448 0 0 0-.296-.091h-.595v.725zM16.955 62.851l-.717 1.425v1.007h-.184v-1.007l-.718-1.425h.199l.617 1.231.605-1.231z"/><path d="M16.367 65.412h-.442v-1.105l-.799-1.585h.487l.537 1.07.526-1.07h.489l-.798 1.585zM20.395 64.592a.868.868 0 0 1-.282.521.813.813 0 0 1-.544.189.858.858 0 0 1-.607-.249.637.637 0 0 1-.157-.232 1.01 1.01 0 0 1-.06-.304 5.89 5.89 0 0 1-.01-.45 5.877 5.877 0 0 1 .01-.451.974.974 0 0 1 .06-.304.646.646 0 0 1 .157-.232.86.86 0 0 1 .277-.186.877.877 0 0 1 .33-.063.822.822 0 0 1 .547.189.876.876 0 0 1 .279.521h-.188a.708.708 0 0 0-.224-.397.615.615 0 0 0-.415-.149.65.65 0 0 0-.462.188.572.572 0 0 0-.126.191.983.983 0 0 0-.051.271c-.009.11-.011.251-.011.424 0 .172.002.313.011.423.007.11.024.2.051.271a.54.54 0 0 0 .126.19.642.642 0 0 0 .462.188.63.63 0 0 0 .419-.147.717.717 0 0 0 .227-.399h.181z"/><path d="M19.569 65.432a.973.973 0 0 1-.699-.286.83.83 0 0 1-.188-.278 1.103 1.103 0 0 1-.067-.341 6.13 6.13 0 0 1-.01-.459 6.145 6.145 0 0 1 .01-.46c.008-.132.03-.246.067-.342a.94.94 0 0 1 .507-.49.998.998 0 0 1 .378-.073.938.938 0 0 1 .63.22c.168.144.276.344.324.596l.029.152h-.449l-.021-.101a.585.585 0 0 0-.183-.329.505.505 0 0 0-.331-.117.548.548 0 0 0-.371.152.403.403 0 0 0-.094.144.847.847 0 0 0-.044.234 5.306 5.306 0 0 0-.011.414c0 .168.002.306.011.413a.798.798 0 0 0 .044.234.385.385 0 0 0 .095.144.512.512 0 0 0 .371.151.498.498 0 0 0 .334-.117.572.572 0 0 0 .185-.328l.023-.102h.441l-.029.154a1.007 1.007 0 0 1-.326.595.937.937 0 0 1-.626.22zM23.97 65.283h-1.475v-2.432h.186v2.268h1.289z"/><path d="M24.1 65.412h-1.734v-2.69h.444v2.268h1.29zM27.39 65.283h-1.475v-2.432h1.475v.165h-1.291v.959h1.1v.164h-1.1v.98h1.291z"/><path d="M27.519 65.412h-1.733v-2.69h1.733v.423h-1.29v.701h1.1v.422h-1.1v.722h1.29z"/><path fill-rule="evenodd" clip-rule="evenodd" d="M31.057 65.283h-.198l-.212-.591h-1.134l-.212.591h-.198l.895-2.431h.165l.894 2.431zm-.469-.754l-.508-1.432-.509 1.432h1.017z"/><path d="M31.242 65.412h-.475l-.212-.591h-.952l-.212.591h-.475l.99-2.688h.345l.991 2.688zM29.755 64.4h.65l-.325-.916-.325.916zM34.72 65.283h-.186l-1.403-2.114v2.114h-.184v-2.432h.184l1.403 2.107v-2.107h.186z"/><path d="M34.849 65.412h-.384l-1.204-1.814v1.814h-.444v-2.69h.383l1.205 1.809v-1.809h.444zM36.938 62.851h.186v2.432h-.186z"/><path d="M36.809 62.722h.443v2.689h-.443zM41.113 65.283h-.185l-1.403-2.114v2.114h-.184v-2.432h.184l1.403 2.107v-2.107h.185z"/><path d="M41.242 65.412h-.384l-1.203-1.814v1.814h-.444v-2.69h.384l1.204 1.809v-1.809h.443zM44.907 64.436c.001.125-.015.236-.044.331a.686.686 0 0 1-.153.256.843.843 0 0 1-.639.28.862.862 0 0 1-.607-.249.654.654 0 0 1-.157-.232.988.988 0 0 1-.059-.304 6.359 6.359 0 0 1-.011-.45 6.355 6.355 0 0 1 .011-.451.954.954 0 0 1 .059-.304.646.646 0 0 1 .157-.232.86.86 0 0 1 .277-.186.88.88 0 0 1 .33-.063.837.837 0 0 1 .547.192.88.88 0 0 1 .283.518h-.185c-.038-.169-.114-.302-.228-.398s-.253-.146-.418-.147a.655.655 0 0 0-.461.188.513.513 0 0 0-.127.19.983.983 0 0 0-.051.271 5.16 5.16 0 0 0-.01.424c-.001.172.001.313.01.423a.961.961 0 0 0 .051.271.505.505 0 0 0 .127.19.638.638 0 0 0 .461.188.661.661 0 0 0 .505-.236c.052-.063.09-.134.112-.211s.033-.167.033-.271v-.219h-.651v-.165h.836v.396z"/><path d="M44.071 65.432a.975.975 0 0 1-.699-.286.818.818 0 0 1-.187-.277 1.106 1.106 0 0 1-.066-.343 6.002 6.002 0 0 1-.011-.458 6.059 6.059 0 0 1 .011-.46c.007-.129.029-.245.065-.341a.81.81 0 0 1 .188-.278.98.98 0 0 1 .699-.286c.249.002.46.078.632.224.169.147.278.346.325.591l.028.153h-.443l-.023-.101a.585.585 0 0 0-.185-.329.506.506 0 0 0-.335-.116.537.537 0 0 0-.201.039.486.486 0 0 0-.265.256.89.89 0 0 0-.043.234 4.901 4.901 0 0 0-.01.414 4.9 4.9 0 0 0 .01.413.836.836 0 0 0 .043.234.409.409 0 0 0 .096.144.506.506 0 0 0 .17.113.535.535 0 0 0 .608-.152.462.462 0 0 0 .088-.165.785.785 0 0 0 .028-.231v-.092h-.651v-.422h1.094v.525c.003.136-.016.262-.051.371a.819.819 0 0 1-.181.305 1.012 1.012 0 0 1-.329.238 1.009 1.009 0 0 1-.405.083z"/><g><path d="M50.371 64.382c-.016 0-.022-.008-.022-.023v-.385c0-.015.007-.021.022-.021h.953c.015 0 .023.006.023.021v.547a.934.934 0 0 1-.285.692.96.96 0 0 1-.695.282.926.926 0 0 1-.544-.155.977.977 0 0 1-.314-.336h.001a.894.894 0 0 1-.098-.265 1.826 1.826 0 0 1-.017-.228 8.786 8.786 0 0 1-.007-.401c0-.164.002-.297.007-.401.003-.103.009-.179.017-.226a.835.835 0 0 1 .098-.266h-.001a.999.999 0 0 1 .314-.337.905.905 0 0 1 .544-.158c.26 0 .474.08.644.24.173.159.28.351.321.573.002.007.001.013-.004.018s-.011.009-.02.009h-.428c-.011 0-.018-.006-.02-.016a.618.618 0 0 0-.07-.141.675.675 0 0 0-.11-.119.449.449 0 0 0-.313-.111.487.487 0 0 0-.397.186.61.61 0 0 0-.105.219c-.01.043-.016.107-.021.197-.004.089-.006.2-.006.333 0 .136.002.248.006.336.005.088.011.153.021.196a.53.53 0 0 0 .043.114.507.507 0 0 0 .219.235.487.487 0 0 0 .24.056.517.517 0 0 0 .375-.152.535.535 0 0 0 .153-.397v-.115h-.524zM53.181 65.474c-.016 0-.022-.009-.022-.022v-2.684c0-.016.007-.022.022-.022h1.051c.115 0 .221.017.314.048a.761.761 0 0 1 .245.137.967.967 0 0 1 .192.253.767.767 0 0 1 .084.334.88.88 0 0 1-.142.474.89.89 0 0 1-.162.168.75.75 0 0 1-.206.114c.1.194.202.389.305.584.102.195.203.39.305.582.004.01.004.018 0 .024-.003.007-.011.011-.019.011h-.483a.014.014 0 0 1-.011-.006c-.004-.003-.008-.005-.01-.008l-.548-1.132h-.485v1.123c0 .014-.008.022-.023.022h-.407zm.428-2.321v.769h.593c.145 0 .254-.039.327-.119a.416.416 0 0 0 .107-.285.394.394 0 0 0-.032-.166.288.288 0 0 0-.095-.12.48.48 0 0 0-.282-.079h-.618zM56.748 64.111c0-.164.002-.297.007-.401.005-.103.011-.179.018-.226a.748.748 0 0 1 .039-.137.75.75 0 0 1 .06-.129h-.003c.065-.122.169-.234.313-.337a.915.915 0 0 1 .546-.158c.215 0 .395.053.541.158.146.106.253.217.317.337a.875.875 0 0 1 .095.266c.009.047.016.123.02.226.005.104.006.237.006.401 0 .32-.009.53-.025.629a.975.975 0 0 1-.092.265 1.069 1.069 0 0 1-.32.336.912.912 0 0 1-.541.155.935.935 0 0 1-.546-.155.983.983 0 0 1-.313-.336h.003a.796.796 0 0 1-.099-.265 2.6 2.6 0 0 1-.018-.228 7.36 7.36 0 0 1-.008-.401zm.452 0c0 .136.001.248.005.336.003.088.012.153.021.196a.526.526 0 0 0 .042.114.515.515 0 0 0 .22.235.48.48 0 0 0 .239.056.481.481 0 0 0 .394-.19.496.496 0 0 0 .104-.215c.019-.08.029-.258.029-.532 0-.137-.002-.248-.007-.337a1.695 1.695 0 0 0-.022-.193.68.68 0 0 0-.041-.117.49.49 0 0 0-.33-.271.45.45 0 0 0-.128-.017c-.094 0-.174.02-.239.057s-.12.08-.159.129a.63.63 0 0 0-.063.102.674.674 0 0 0-.04.117.983.983 0 0 0-.021.197c-.003.089-.004.2-.004.333zM60.47 62.768c0-.016.008-.022.023-.022h.407c.014 0 .02.007.02.022v1.729c0 .18.05.316.15.408a.53.53 0 0 0 .377.142.522.522 0 0 0 .372-.142c.101-.093.152-.229.152-.408v-1.729c0-.016.007-.022.022-.022h.405c.015 0 .022.007.022.022v1.775a.897.897 0 0 1-.285.692.98.98 0 0 1-.689.26.982.982 0 0 1-.692-.26c-.19-.175-.285-.405-.285-.692v-1.775zM64.298 65.474c-.016 0-.022-.009-.022-.022v-2.684c0-.016.007-.022.022-.022h.974c.106 0 .208.012.305.033a.843.843 0 0 1 .525.425.913.913 0 0 1 .085.393.873.873 0 0 1-.222.563c-.146.177-.36.266-.641.266h-.599v1.026c0 .014-.007.022-.022.022h-.405zm.428-2.298v.82h.583c.144 0 .25-.043.32-.129a.428.428 0 0 0 .106-.281c0-.154-.055-.268-.165-.338a.485.485 0 0 0-.277-.072h-.567z"/></g></g></svg>