<svg id="Layer_1" xmlns="http://www.w3.org/2000/svg" xmlns:xlink="http://www.w3.org/1999/xlink" viewBox="0 0 276 341.5"><style>.st0{fill:#0084a9}.st1{fill:#fff}.st2{clip-path:url(#SVGID_2_);fill:#009fbf}.st3,.st4{clip-path:url(#SVGID_4_);fill:#fff}.st4{clip-path:url(#SVGID_6_)}.st5,.st6{clip-path:url(#SVGID_8_);fill:#fff}.st6{clip-path:url(#SVGID_10_)}.st7,.st8{clip-path:url(#SVGID_12_);fill:#fff}.st8{clip-path:url(#SVGID_14_)}.st10,.st9{clip-path:url(#SVGID_16_);fill:#fff}.st10{clip-path:url(#SVGID_18_)}.st11,.st12{clip-path:url(#SVGID_20_);fill:#fff}.st12{clip-path:url(#SVGID_22_)}.st13,.st14{clip-path:url(#SVGID_24_);fill:#fff}.st14{clip-path:url(#SVGID_26_)}.st15,.st16{clip-path:url(#SVGID_28_);fill:#fff}.st16{clip-path:url(#SVGID_30_)}.st17,.st18{clip-path:url(#SVGID_32_);fill:#fff}.st18{clip-path:url(#SVGID_34_)}.st19,.st20{clip-path:url(#SVGID_36_);fill:#fff}.st20{clip-path:url(#SVGID_38_)}.st21,.st22{clip-path:url(#SVGID_40_);fill:#fff}.st22{clip-path:url(#SVGID_42_)}.st23,.st24{clip-path:url(#SVGID_44_);fill:#fff}.st24{clip-path:url(#SVGID_46_)}.st25,.st26{clip-path:url(#SVGID_48_);fill:#fff}.st26{clip-path:url(#SVGID_50_)}.st27,.st28{clip-path:url(#SVGID_52_);fill:#fff}.st28{clip-path:url(#SVGID_54_)}.st29,.st30{clip-path:url(#SVGID_56_);fill:#fff}.st30{clip-path:url(#SVGID_58_)}</style><path class="st0" d="M18.6 100.1h236.9V337H18.6z"/><path class="st1" d="M75.5 288.8h-6.7v-19.9l-6.5 12.9h-4.5l-6.6-12.9v19.9h-6.7v-34.2h6.6l8.9 18.5 8.9-18.5h6.6zM131.9 288.8h-7l-2-6h-12.1l-2.1 6h-7l12.4-34.2h5.2l12.6 34.2zm-10.8-11.7l-4.2-12.4-4.3 12.4h8.5zM181.4 288.8h-22.1v-34.2h6.6v28.2h15.5zM230.9 288.8h-22.1v-34.2h6.6v28.2h15.5z"/><defs><path id="SVGID_1_" d="M18.6 100.1h236.9V337H18.6z"/></defs><clipPath id="SVGID_2_"><use xlink:href="#SVGID_1_" overflow="visible"/></clipPath><path class="st2" d="M177.5 113.9h51.3c6.5 0 11.8 5.3 11.8 11.8V177c0 6.5-5.3 11.8-11.8 11.8h-51.3c-6.5 0-11.8-5.3-11.8-11.8v-51.3c-.1-6.5 5.2-11.8 11.8-11.8"/><defs><path id="SVGID_3_" d="M18.6 100.1h236.9V337H18.6z"/></defs><clipPath id="SVGID_4_"><use xlink:href="#SVGID_3_" overflow="visible"/></clipPath><path class="st3" d="M202.2 127.2l6.9 17.3 16.6-5.3.9 3.2-14.4 11.9 10.3 14.1-2.9 2-15.7-10.1-10.2 14.2-3.7-3 5.6-17.2-16.5-5.4 1.3-4 18.4-.4v-17.3z"/><defs><path id="SVGID_5_" d="M18.6 100.1h236.9V337H18.6z"/></defs><clipPath id="SVGID_6_"><use xlink:href="#SVGID_5_" overflow="visible"/></clipPath><path class="st4" d="M50.3 305.9v1.2c0 .4-.1.8-.2 1.2-.1.4-.3.7-.6 1-.5.5-1.1.7-2 .7h-2.6v-7.8h2.6c.8 0 1.5.2 2 .7.3.3.4.6.6.9.1.3.2.7.2 1.1v1m-.6 0v-.9c0-.3-.1-.6-.1-.9-.1-.3-.2-.6-.4-.8-.2-.2-.5-.4-.8-.5-.3-.1-.6-.1-.9-.1h-1.9v6.8h1.9c.3 0 .6 0 .9-.1.3-.1.5-.2.8-.5.2-.2.3-.5.4-.8.1-.3.1-.7.1-1.1v-1.1"/><defs><path id="SVGID_7_" d="M18.6 100.1h236.9V337H18.6z"/></defs><clipPath id="SVGID_8_"><use xlink:href="#SVGID_7_" overflow="visible"/></clipPath><path class="st5" d="M47.6 310.3h-3v-8.6h3c.9 0 1.7.3 2.2.8.3.3.5.7.7 1.1.1.4.2.8.2 1.2v2.3c0 .4-.1.9-.2 1.3s-.3.8-.6 1.1c-.6.6-1.4.8-2.3.8m-1.7-1.3h1.5c.3 0 .5 0 .8-.1.2-.1.4-.2.6-.4.1-.2.3-.4.3-.6.1-.3.1-.6.1-1v-1-.9c0-.3-.1-.6-.1-.9l-.3-.6c-.2-.2-.4-.3-.6-.4-.2-.1-.5-.1-.8-.1h-1.5v6z"/><defs><path id="SVGID_9_" d="M18.6 100.1h236.9V337H18.6z"/></defs><clipPath id="SVGID_10_"><use xlink:href="#SVGID_9_" overflow="visible"/></clipPath><path class="st6" d="M62.4 309.9h-.7l-1.9-3.6h-2.2v3.6H57v-7.8h3c.6 0 1.2.2 1.6.5.4.4.6.9.6 1.6 0 .6-.2 1.1-.5 1.4-.3.4-.8.6-1.3.7l2 3.6zm-.7-5.7c0-.5-.2-.9-.5-1.2-.3-.3-.7-.4-1.2-.4h-2.3v3.2H60c.5 0 .9-.1 1.2-.4.3-.2.5-.6.5-1.2"/><defs><path id="SVGID_11_" d="M18.6 100.1h236.9V337H18.6z"/></defs><clipPath id="SVGID_12_"><use xlink:href="#SVGID_11_" overflow="visible"/></clipPath><path class="st7" d="M63.1 310.3h-1.6l-1.9-3.6h-1.5v3.6h-1.4v-8.6h3.4c.8 0 1.4.2 1.9.6.5.4.8 1.1.8 1.9 0 .7-.2 1.3-.6 1.7-.3.3-.6.5-1 .7l1.9 3.7zm-5-4.9H60c.4 0 .7-.1 1-.3.2-.2.3-.5.3-.9s-.1-.7-.3-.9c-.2-.2-.5-.3-1-.3h-1.9v2.4z"/><defs><path id="SVGID_13_" d="M18.6 100.1h236.9V337H18.6z"/></defs><clipPath id="SVGID_14_"><use xlink:href="#SVGID_13_" overflow="visible"/></clipPath><path class="st8" d="M73.1 302.1l-2.3 4.6v3.2h-.6v-3.2l-2.3-4.6h.7l2 4 1.9-4z"/><defs><path id="SVGID_15_" d="M18.6 100.1h236.9V337H18.6z"/></defs><clipPath id="SVGID_16_"><use xlink:href="#SVGID_15_" overflow="visible"/></clipPath><path class="st9" d="M71.3 310.3h-1.5v-3.5l-2.5-5.1h1.5l1.8 3.4 1.6-3.4h1.6l-2.5 5.1z"/><defs><path id="SVGID_17_" d="M18.6 100.1h236.9V337H18.6z"/></defs><clipPath id="SVGID_18_"><use xlink:href="#SVGID_17_" overflow="visible"/></clipPath><path class="st10" d="M84.2 307.7c-.1.7-.4 1.3-.9 1.7-.5.4-1.1.6-1.7.6-.4 0-.7-.1-1.1-.2-.3-.1-.6-.3-.9-.6-.2-.2-.4-.5-.5-.7-.1-.3-.2-.6-.2-1v-1.4-1.4c0-.4.1-.7.2-1 .1-.3.3-.5.5-.7.3-.3.6-.5.9-.6.3-.1.7-.2 1.1-.2.7 0 1.3.2 1.8.6.5.4.8 1 .9 1.7h-.6c-.1-.5-.4-1-.7-1.3-.4-.3-.8-.5-1.3-.5-.3 0-.5.1-.8.2-.3.1-.5.2-.7.4-.2.2-.3.4-.4.6-.1.2-.1.5-.2.9v2.8c0 .4.1.6.2.9.1.2.2.4.4.6.2.2.4.3.7.4.3.1.5.2.8.2.5 0 1-.2 1.3-.5.4-.3.6-.7.7-1.3l.5-.2z"/><defs><path id="SVGID_19_" d="M18.6 100.1h236.9V337H18.6z"/></defs><clipPath id="SVGID_20_"><use xlink:href="#SVGID_19_" overflow="visible"/></clipPath><path class="st11" d="M81.5 310.4c-.4 0-.8-.1-1.2-.2-.4-.2-.7-.4-1-.7-.3-.3-.5-.6-.6-.9-.1-.3-.2-.7-.2-1.1V306v-1.5c0-.4.1-.8.2-1.1.1-.3.3-.6.6-.9.3-.3.6-.5 1-.7.4-.2.8-.2 1.2-.2.8 0 1.5.2 2 .7.5.5.9 1.1 1 1.9l.1.5h-1.4l-.1-.3c-.1-.5-.3-.8-.6-1.1-.3-.2-.6-.4-1.1-.4-.2 0-.4 0-.6.1-.2.1-.4.2-.5.4-.1.1-.2.3-.3.5-.1.2-.1.4-.1.8v2.6c0 .3.1.6.1.8.1.2.2.3.3.5.2.2.3.3.5.4.2.1.4.1.6.1.4 0 .8-.1 1.1-.4.3-.2.5-.6.6-1.1l.1-.3h1.4l-.1.5c-.2.8-.5 1.5-1 1.9-.5.5-1.2.7-2 .7"/><g><defs><path id="SVGID_21_" d="M18.6 100.1h236.9V337H18.6z"/></defs><clipPath id="SVGID_22_"><use xlink:href="#SVGID_21_" overflow="visible"/></clipPath><path class="st12" d="M95.7 309.9h-4.8v-7.8h.6v7.3h4.2z"/></g><g><defs><path id="SVGID_23_" d="M18.6 100.1h236.9V337H18.6z"/></defs><clipPath id="SVGID_24_"><use xlink:href="#SVGID_23_" overflow="visible"/></clipPath><path class="st13" d="M96.1 310.3h-5.6v-8.6H92v7.3h4.1z"/></g><g><defs><path id="SVGID_25_" d="M18.6 100.1h236.9V337H18.6z"/></defs><clipPath id="SVGID_26_"><use xlink:href="#SVGID_25_" overflow="visible"/></clipPath><path class="st14" d="M106.7 309.9h-4.8v-7.8h4.8v.5h-4.2v3.1h3.6v.6h-3.6v3.1h4.2z"/></g><g><defs><path id="SVGID_27_" d="M18.6 100.1h236.9V337H18.6z"/></defs><clipPath id="SVGID_28_"><use xlink:href="#SVGID_27_" overflow="visible"/></clipPath><path class="st15" d="M107.1 310.3h-5.6v-8.6h5.6v1.4h-4.2v2.2h3.6v1.4h-3.6v2.3h4.2z"/></g><g><defs><path id="SVGID_29_" d="M18.6 100.1h236.9V337H18.6z"/></defs><clipPath id="SVGID_30_"><use xlink:href="#SVGID_29_" overflow="visible"/></clipPath><path class="st16" d="M118.5 309.9h-.6l-.7-1.9h-3.6l-.7 1.9h-.6l2.9-7.8h.5l2.8 7.8zm-1.5-2.4l-1.6-4.6-1.6 4.6h3.2z"/></g><g><defs><path id="SVGID_31_" d="M18.6 100.1h236.9V337H18.6z"/></defs><clipPath id="SVGID_32_"><use xlink:href="#SVGID_31_" overflow="visible"/></clipPath><path class="st17" d="M119.1 310.3h-1.5l-.7-1.9h-3.1l-.7 1.9h-1.5l3.2-8.6h1.1l3.2 8.6zm-4.8-3.2h2.1l-1-2.9-1.1 2.9z"/></g><g><defs><path id="SVGID_33_" d="M18.6 100.1h236.9V337H18.6z"/></defs><clipPath id="SVGID_34_"><use xlink:href="#SVGID_33_" overflow="visible"/></clipPath><path class="st18" d="M130.2 309.9h-.6l-4.5-6.8v6.8h-.6v-7.8h.6l4.5 6.8v-6.8h.6z"/></g><g><defs><path id="SVGID_35_" d="M18.6 100.1h236.9V337H18.6z"/></defs><clipPath id="SVGID_36_"><use xlink:href="#SVGID_35_" overflow="visible"/></clipPath><path class="st19" d="M130.7 310.3h-1.3l-3.8-5.8v5.8h-1.5v-8.6h1.3l3.8 5.8v-5.8h1.5z"/></g><g><defs><path id="SVGID_37_" d="M18.6 100.1h236.9V337H18.6z"/></defs><clipPath id="SVGID_38_"><use xlink:href="#SVGID_37_" overflow="visible"/></clipPath><path class="st20" d="M137.4 302.1h.6v7.8h-.6z"/></g><g><defs><path id="SVGID_39_" d="M18.6 100.1h236.9V337H18.6z"/></defs><clipPath id="SVGID_40_"><use xlink:href="#SVGID_39_" overflow="visible"/></clipPath><path class="st21" d="M137 301.7h1.4v8.6H137z"/></g><g><defs><path id="SVGID_41_" d="M18.6 100.1h236.9V337H18.6z"/></defs><clipPath id="SVGID_42_"><use xlink:href="#SVGID_41_" overflow="visible"/></clipPath><path class="st22" d="M150.8 309.9h-.6l-4.5-6.8v6.8h-.6v-7.8h.6l4.5 6.8v-6.8h.6z"/></g><g><defs><path id="SVGID_43_" d="M18.6 100.1h236.9V337H18.6z"/></defs><clipPath id="SVGID_44_"><use xlink:href="#SVGID_43_" overflow="visible"/></clipPath><path class="st23" d="M151.2 310.3H150l-3.9-5.8v5.8h-1.4v-8.6h1.2l3.9 5.8v-5.8h1.4z"/></g><g><defs><path id="SVGID_45_" d="M18.6 100.1h236.9V337H18.6z"/></defs><clipPath id="SVGID_46_"><use xlink:href="#SVGID_45_" overflow="visible"/></clipPath><path class="st24" d="M163 307.2c0 .4 0 .8-.1 1.1-.1.3-.3.6-.5.8-.3.3-.6.5-.9.7-.4.2-.7.2-1.1.2-.4 0-.7-.1-1.1-.2-.3-.1-.6-.3-.9-.6-.2-.2-.4-.5-.5-.7-.1-.3-.2-.6-.2-1v-1.4-1.5c0-.4.1-.7.2-1 .1-.3.3-.5.5-.7.3-.3.6-.5.9-.6.3-.1.7-.2 1.1-.2.7 0 1.3.2 1.8.6.5.4.8 1 .9 1.7h-.6c-.1-.5-.4-1-.7-1.3-.4-.3-.8-.5-1.3-.5-.3 0-.6 0-.8.2-.3.1-.5.3-.7.4-.2.2-.3.4-.4.6-.1.2-.1.5-.2.9v2.8c0 .4.1.6.2.9.1.2.2.4.4.6.2.2.4.3.7.4.3.1.5.2.8.2.3 0 .6-.1.9-.2.3-.1.5-.3.7-.6.2-.2.3-.4.4-.7.1-.2.1-.5.1-.9v-.7h-2.1v-.5h2.7l-.2 1.2z"/></g><g><defs><path id="SVGID_47_" d="M18.6 100.1h236.9V337H18.6z"/></defs><clipPath id="SVGID_48_"><use xlink:href="#SVGID_47_" overflow="visible"/></clipPath><path class="st25" d="M160.3 310.4c-.4 0-.8-.1-1.2-.2-.4-.2-.7-.4-1-.7-.3-.3-.5-.6-.6-.9-.1-.3-.2-.7-.2-1.1V306v-1.5c0-.4.1-.8.2-1.1.1-.3.3-.6.6-.9.3-.3.6-.5 1-.7.4-.2.8-.2 1.2-.2.8 0 1.5.3 2 .7.5.5.9 1.1 1 1.9l.1.5H162l-.1-.3c-.1-.5-.3-.8-.6-1.1-.3-.2-.6-.4-1.1-.4-.2 0-.4 0-.6.1-.2.1-.4.2-.5.4-.1.1-.2.3-.3.5-.1.2-.1.4-.1.8v2.6c0 .3.1.6.1.8.1.2.2.3.3.5.2.2.3.3.5.4.4.2.9.2 1.4 0 .2-.1.4-.3.6-.5.1-.2.2-.3.3-.5.1-.2.1-.5.1-.7v-.3h-2.1v-1.4h3.5v1.7c0 .4 0 .8-.2 1.2-.1.4-.3.7-.6 1-.3.3-.7.6-1.1.8-.3 0-.7.1-1.2.1"/></g><g><defs><path id="SVGID_49_" d="M18.6 100.1h236.9V337H18.6z"/></defs><clipPath id="SVGID_50_"><use xlink:href="#SVGID_49_" overflow="visible"/></clipPath><path class="st26" d="M180.6 307c-.1 0-.1 0 0 0l-.1-1.3s0-.1.1-.1h3.1s.1 0 .1.1v1.8c0 .9-.3 1.6-.9 2.2-.6.6-1.4.9-2.2.9-.7 0-1.3-.2-1.7-.5-.5-.3-.8-.7-1-1.1-.1-.1-.1-.3-.2-.4-.1-.1-.1-.3-.1-.4 0-.2 0-.4-.1-.7v-1.3-1.3c0-.3 0-.6.1-.7 0-.2.1-.3.1-.4.1-.1.1-.3.2-.4.2-.4.5-.8 1-1.1.5-.3 1-.5 1.7-.5.8 0 1.5.3 2.1.8.6.5.9 1.1 1 1.8v.1h-1.5-.1c-.1-.2-.1-.3-.2-.5-.1-.1-.2-.3-.4-.4-.3-.2-.6-.4-1-.4-.3 0-.6.1-.8.2-.2.1-.4.3-.5.4-.1.1-.1.2-.2.3-.1.1-.1.3-.1.4 0 .1-.1.3-.1.6v2.2c0 .3 0 .5.1.6 0 .1.1.2.1.4.1.1.1.2.2.3.1.2.3.3.5.4.2.1.5.2.8.2.5 0 .9-.2 1.2-.5.3-.3.5-.7.5-1.3v-.4h-1.7z"/></g><g><defs><path id="SVGID_51_" d="M18.6 100.1h236.9V337H18.6z"/></defs><clipPath id="SVGID_52_"><use xlink:href="#SVGID_51_" overflow="visible"/></clipPath><path class="st27" d="M189.6 310.5c-.1 0-.1 0 0 0l-.1-8.7s0-.1.1-.1h3.4c.4 0 .7.1 1 .2.3.1.6.3.8.4.1.1.2.2.3.4.1.1.2.3.3.4.1.2.2.3.2.5s.1.4.1.6c0 .3 0 .6-.1.8-.1.3-.2.5-.3.7-.1.2-.3.4-.5.5-.2.2-.4.3-.7.4.3.6.7 1.3 1 1.9.3.6.7 1.3 1 1.9v.1H194.4l-1.8-3.6H191v3.6s0 .1-.1.1l-1.3-.1zm1.4-7.4v2.5h1.9c.5 0 .8-.1 1.1-.4.2-.3.3-.6.3-.9 0-.2 0-.4-.1-.5-.1-.2-.2-.3-.3-.4-.1-.1-.3-.1-.4-.2-.2 0-.3-.1-.5-.1h-2z"/></g><g><defs><path id="SVGID_53_" d="M18.6 100.1h236.9V337H18.6z"/></defs><clipPath id="SVGID_54_"><use xlink:href="#SVGID_53_" overflow="visible"/></clipPath><path class="st28" d="M201 306.2v-1.3c0-.3 0-.6.1-.7 0-.2.1-.3.1-.4 0-.1.1-.3.2-.4.2-.4.5-.8 1-1.1.5-.3 1.1-.5 1.8-.5s1.3.2 1.7.5c.5.3.8.7 1 1.1.1.3.3.6.3.9 0 .1.1.4.1.7v1.3c0 1 0 1.7-.1 2 0 .2-.1.3-.1.4 0 .1-.1.3-.2.4-.2.4-.6.7-1 1.1-.5.3-1.1.5-1.7.5-.7 0-1.3-.2-1.8-.5s-.8-.7-1-1.1c-.1-.1-.1-.3-.2-.4-.1-.1-.1-.3-.1-.4 0-.2 0-.4-.1-.7.1-.5 0-.9 0-1.4m1.5 0v1.1c0 .3 0 .5.1.6 0 .1.1.2.1.4.1.1.1.2.2.3.1.2.3.3.5.4.2.1.5.2.8.2.3 0 .5-.1.8-.2.2-.1.4-.3.5-.4.2-.2.3-.4.3-.7.1-.3.1-.8.1-1.7v-1.1c0-.3 0-.5-.1-.6 0-.1-.1-.3-.1-.4-.1-.1-.1-.2-.2-.3-.1-.1-.1-.2-.2-.2-.1-.1-.2-.1-.3-.2-.1-.1-.2-.1-.4-.1-.1 0-.3-.1-.4-.1-.3 0-.6.1-.8.2-.2.1-.4.3-.5.4-.1.1-.1.2-.2.3-.1.1-.1.3-.1.4 0 .1-.1.3-.1.6v1.1"/></g><g><defs><path id="SVGID_55_" d="M18.6 100.1h236.9V337H18.6z"/></defs><clipPath id="SVGID_56_"><use xlink:href="#SVGID_55_" overflow="visible"/></clipPath><path class="st29" d="M213 301.8l1.4-.1s.1 0 .1.1v5.6c0 .6.2 1 .5 1.3.3.3.7.5 1.2.5s.9-.1 1.2-.5c.3-.3.5-.7.5-1.3v-5.6s0-.1.1-.1h1.3s.1 0 .1.1v5.7c0 .9-.3 1.7-.9 2.2-.6.6-1.3.8-2.2.8-.9 0-1.6-.3-2.2-.8-.6-.6-.9-1.3-.9-2.2l-.2-5.7z"/></g><g><defs><path id="SVGID_57_" d="M18.6 100.1h236.9V337H18.6z"/></defs><clipPath id="SVGID_58_"><use xlink:href="#SVGID_57_" overflow="visible"/></clipPath><path class="st30" d="M225.3 310.5s-.1 0 0 0l-.1-8.7s0-.1.1-.1h3.1c.3 0 .7 0 1 .1.3.1.6.2 1 .5.1.1.3.2.4.4.1.1.2.3.3.5.1.2.2.4.2.6.1.2.1.4.1.7 0 .6-.2 1.2-.7 1.8-.5.6-1.2.9-2.1.9h-1.9v3.3s0 .1-.1.1l-1.3-.1zm1.4-7.3v2.6h1.9c.5 0 .8-.1 1-.4.2-.3.3-.6.3-.9 0-.5-.2-.9-.5-1.1-.2-.2-.5-.2-.9-.2h-1.8z"/></g><g><path class="st1" d="M17.3 11.5c1.3 0 2.4.1 3.4.4s1.9.7 2.6 1.2c.7.5 1.3 1.1 1.6 1.9.4.7.6 1.6.6 2.5 0 1.5-.3 2.8-.9 3.8-.6 1-1.4 1.9-2.4 2.5-1 .6-2.2 1.1-3.6 1.4-1.4.3-2.9.4-4.5.4h-1.2l-1.7 7H6.5l4.9-20.7c1.1-.2 2.1-.3 3.1-.4 1 .1 1.9 0 2.8 0zm-.4 4H16c-.2 0-.5 0-.7.1l-1.5 6.2H15c.8 0 1.6-.1 2.3-.2.7-.1 1.3-.3 1.8-.7.5-.3.9-.7 1.2-1.2.3-.5.4-1.1.4-1.7 0-.9-.3-1.6-1-1.9-.7-.4-1.6-.6-2.8-.6zM40.6 20.7l-1.2-.3c-.4-.1-1-.1-1.7-.1-.3 0-.6 0-.9.1-.3.1-.6.1-.8.2l-2.9 12.2h-4.5L32 17.7c.9-.3 1.8-.5 2.9-.8 1.1-.3 2.3-.4 3.6-.4.5 0 1.1 0 1.7.1.6.1 1.2.2 1.6.4l-1.2 3.7zM50.9 33.2c-1.1 0-2-.2-2.8-.5-.8-.3-1.4-.8-2-1.4-.5-.6-.9-1.3-1.2-2.1-.3-.8-.4-1.7-.4-2.6 0-1.2.2-2.4.6-3.6.4-1.2 1-2.3 1.7-3.3.8-1 1.7-1.8 2.8-2.4 1.1-.6 2.4-.9 3.8-.9 1 0 2 .2 2.8.5.8.3 1.5.8 2 1.4.5.6.9 1.3 1.2 2.1.3.8.4 1.7.4 2.6 0 1.2-.2 2.4-.6 3.6-.4 1.2-.9 2.3-1.7 3.3-.7 1-1.7 1.8-2.8 2.4-1.1.6-2.4.9-3.8.9zm2.2-13c-.7 0-1.3.2-1.8.6-.5.4-.9.9-1.3 1.5s-.6 1.2-.8 1.9c-.2.7-.3 1.4-.3 2 0 1 .2 1.8.5 2.4.3.6.9.8 1.8.8.7 0 1.3-.2 1.8-.6.5-.4.9-.9 1.3-1.5.3-.6.6-1.2.8-1.9.2-.7.3-1.4.3-2 0-1-.2-1.8-.5-2.4-.4-.5-.9-.8-1.8-.8zM80.7 16.8l-2.1 9c-.3 1.2-.4 2.3-.2 3.5.1 1.2.4 2.2.7 3.1L75 33c-.2-.4-.4-.9-.6-1.5-.6.4-1.2.8-1.9 1.1-.7.3-1.5.5-2.4.5-1.2 0-2.2-.2-2.9-.7-.7-.4-1.3-1-1.6-1.7s-.6-1.5-.6-2.4c0-.9.1-1.9.3-2.8l2.1-8.6h4.5l-2 8.5c-.1.4-.2.9-.3 1.4-.1.5-.1.9 0 1.3s.2.7.5 1c.3.3.7.4 1.2.4s.9-.1 1.3-.3c.4-.2.8-.5 1.3-.9 0-.5.1-1 .2-1.6.1-.6.2-1.1.3-1.5l2-8.3 4.3-.1zM90.9 33.2c-1 0-1.9-.2-2.6-.5s-1.3-.8-1.8-1.4c-.5-.6-.8-1.3-1-2.1-.2-.8-.3-1.6-.3-2.6 0-1.4.2-2.7.7-3.9.5-1.2 1.2-2.3 2-3.2s1.9-1.6 3.1-2.1c1.2-.5 2.5-.8 3.9-.8.4 0 .7 0 1 .1.3 0 .6.1 1 .2l1.6-6.8 4.7-.7-4 16.6c-.3 1.2-.4 2.3-.2 3.5s.4 2.2.7 3.1l-4 .6c-.1-.2-.2-.5-.3-.7-.1-.2-.2-.5-.3-.8-.6.5-1.2.8-1.9 1.2-.6.1-1.4.3-2.3.3zm5.2-12.8c-.1 0-.2 0-.3-.1h-1.1c-.7 0-1.4.2-2 .5-.6.3-1.1.8-1.6 1.3-.4.6-.8 1.2-1 1.9-.2.7-.4 1.4-.4 2.2 0 1 .2 1.7.5 2.3.3.6.9.8 1.8.8.5 0 .9-.1 1.3-.3s.8-.5 1.2-.9c0-.5.1-1 .2-1.6.1-.6.2-1.1.3-1.5l1.1-4.6zM111.9 33.1c-1.4 0-2.6-.2-3.4-.6-.8-.4-1.4-.9-1.8-1.5-.4-.6-.5-1.4-.5-2.2 0-.8.1-1.7.3-2.7l3.8-16.1 4.7-.7-4.2 17.4c-.1.4-.1.7-.1 1 0 .3 0 .6.2.8.1.2.3.4.6.6.3.1.7.2 1.2.3l-.8 3.7zM134.8 16.8c-.6 1.5-1.1 3-1.7 4.3-.6 1.3-1.2 2.6-1.8 3.8-.6 1.2-1.3 2.3-1.9 3.4-.7 1.1-1.4 2.2-2.1 3.2-.5.8-1.1 1.6-1.7 2.4-.6.8-1.2 1.5-2 2.2-.7.6-1.5 1.2-2.4 1.6-.9.4-1.9.6-3 .6-.7 0-1.3-.1-1.8-.2s-1-.3-1.4-.5l1.4-3.5c.4.2.8.3 1.1.4.3.1.7.1 1.2.1.7 0 1.4-.2 2-.7.6-.5 1.2-1.1 1.6-1.8-.5-2-1-4.3-1.4-6.8-.4-2.5-.7-5.3-.9-8.5h4.6c0 .8.1 1.7.1 2.6.1.9.1 1.9.2 2.9s.2 1.9.3 2.8c.1.9.2 1.7.3 2.5 1-1.5 1.8-3.1 2.6-4.8s1.4-3.7 2.1-5.9l4.6-.1zM162.3 28.8l-1 4h-14l5-21h4.7l-4.1 17h9.4zM173.9 33.2c-1.1 0-2-.2-2.8-.5-.8-.3-1.4-.8-2-1.4-.5-.6-.9-1.3-1.2-2.1-.3-.8-.4-1.7-.4-2.6 0-1.2.2-2.4.6-3.6.4-1.2 1-2.3 1.7-3.3.8-1 1.7-1.8 2.8-2.4 1.1-.6 2.4-.9 3.8-.9 1 0 2 .2 2.8.5.8.3 1.5.8 2 1.4.5.6.9 1.3 1.2 2.1.3.8.4 1.7.4 2.6 0 1.2-.2 2.4-.6 3.6-.4 1.2-.9 2.3-1.7 3.3-.7 1-1.7 1.8-2.8 2.4-1 .6-2.3.9-3.8.9zm2.2-13c-.7 0-1.3.2-1.8.6-.5.4-.9.9-1.3 1.5-.3.6-.6 1.2-.8 1.9-.2.7-.3 1.4-.3 2 0 1 .2 1.8.5 2.4.3.6.9.8 1.8.8.7 0 1.3-.2 1.8-.6.5-.4.9-.9 1.3-1.5.3-.6.6-1.2.8-1.9.2-.7.3-1.4.3-2 0-1-.2-1.8-.5-2.4-.3-.5-.9-.8-1.8-.8zM188 26.4c0-1.4.2-2.7.7-3.9.4-1.2 1.1-2.3 1.9-3.2.8-.9 1.8-1.6 3-2.1s2.5-.8 3.9-.8c.9 0 1.7.1 2.4.3.7.2 1.4.4 2 .7l-1.5 3.5c-.4-.2-.8-.3-1.3-.4-.4-.1-1-.2-1.6-.2-1.5 0-2.7.5-3.6 1.5-.9 1-1.3 2.4-1.3 4.2 0 1 .2 1.9.7 2.5.4.6 1.3 1 2.4 1 .6 0 1.2-.1 1.7-.2s1-.3 1.5-.5l.3 3.6c-.6.2-1.2.4-1.9.6-.7.2-1.5.3-2.5.3-1.3 0-2.3-.2-3.2-.5-.9-.4-1.6-.9-2.1-1.5-.6-.6-1-1.3-1.2-2.2-.2-.9-.3-1.8-.3-2.7zM218.9 25.9c-.3 1.2-.4 2.3-.2 3.5.1 1.2.4 2.2.7 3.1l-4 .6c-.1-.2-.2-.5-.3-.7-.1-.2-.2-.5-.3-.8-.6.5-1.2.8-1.9 1.2-.7.3-1.5.5-2.3.5-1 0-1.9-.2-2.6-.5-.7-.4-1.3-.8-1.8-1.4-.5-.6-.8-1.3-1-2.1-.2-.8-.3-1.6-.3-2.6 0-1.4.2-2.7.7-3.9.5-1.2 1.2-2.3 2.1-3.2.9-.9 1.9-1.6 3.1-2.2 1.2-.5 2.5-.8 3.9-.8h1c.5 0 1 .1 1.6.1l1.8.3c.6.1 1.3.4 1.8.7l-2 8.2zm-3.1-5.6c-.3 0-.5-.1-.7-.1h-.8c-.7 0-1.3.2-1.9.5-.6.3-1.1.8-1.6 1.3-.4.6-.8 1.2-1 1.9-.3.7-.4 1.5-.4 2.3 0 1 .2 1.7.5 2.3.3.6.9.8 1.8.8.5 0 .9-.1 1.3-.3.4-.2.8-.5 1.2-.9 0-.5.1-1 .2-1.6.1-.6.2-1.1.3-1.5l1.1-4.7zM231.4 33.1c-1.4 0-2.6-.2-3.4-.6-.8-.4-1.4-.9-1.8-1.5-.4-.6-.5-1.4-.5-2.2 0-.8.1-1.7.3-2.7l4-16.1 4.7-.7-4.2 17.4c-.1.4-.1.7-.1 1 0 .3 0 .6.2.8.1.2.3.4.6.6.3.1.7.2 1.2.3l-1 3.7zM243.7 33.1c-1.4 0-2.6-.2-3.4-.6-.8-.4-1.4-.9-1.8-1.5-.4-.6-.5-1.4-.5-2.2 0-.8.1-1.7.3-2.7l3.8-16.1 4.7-.7-4.2 17.4c-.1.4-.1.7-.1 1 0 .3 0 .6.2.8.1.2.3.4.6.6.3.1.7.2 1.2.3l-.8 3.7zM266.6 16.8c-.6 1.5-1.1 3-1.7 4.3-.6 1.3-1.2 2.6-1.8 3.8-.6 1.2-1.3 2.3-1.9 3.4-.7 1.1-1.4 2.2-2.1 3.2-.5.8-1.1 1.6-1.7 2.4-.6.8-1.2 1.5-2 2.2-.7.6-1.5 1.2-2.4 1.6-.9.4-1.9.6-3 .6-.7 0-1.3-.1-1.8-.2s-1-.3-1.4-.5l1.4-3.5c.4.2.8.3 1.1.4.3.1.7.1 1.2.1.7 0 1.4-.2 2-.7.6-.5 1.2-1.1 1.6-1.8-.5-2-1-4.3-1.4-6.8-.4-2.5-.7-5.3-.9-8.5h4.6c0 .8.1 1.7.1 2.6.1.9.1 1.9.2 2.9s.2 1.9.3 2.8c.1.9.2 1.7.3 2.5 1-1.5 1.8-3.1 2.6-4.8.7-1.8 1.4-3.7 2.1-5.9l4.6-.1zM66.1 69.5c-1.1 0-2-.2-2.8-.5-.8-.3-1.4-.8-2-1.4s-.9-1.3-1.2-2.1c-.3-.8-.4-1.7-.4-2.6 0-1.2.2-2.4.6-3.6.4-1.2 1-2.3 1.7-3.3.8-1 1.7-1.8 2.8-2.4 1.1-.6 2.4-.9 3.8-.9 1 0 2 .2 2.8.5s1.5.8 2 1.4c.5.6.9 1.3 1.2 2.1.3.8.4 1.7.4 2.6 0 1.2-.2 2.4-.6 3.6-.4 1.2-.9 2.3-1.7 3.3-.7 1-1.7 1.8-2.8 2.4s-2.3.9-3.8.9zm2.3-13c-.7 0-1.3.2-1.8.6-.5.4-.9.9-1.3 1.5-.3.6-.6 1.2-.8 1.9-.2.7-.3 1.4-.3 2 0 1 .2 1.8.5 2.4.3.6.9.8 1.8.8.7 0 1.3-.2 1.8-.6.5-.4.9-.9 1.3-1.5.3-.6.6-1.2.8-1.9.2-.7.3-1.4.3-2 0-1-.2-1.8-.5-2.4-.4-.5-1-.8-1.8-.8zM91.5 59.7c-.4.8-.8 1.7-1.3 2.5-.5.9-1 1.7-1.5 2.5s-1 1.6-1.4 2.3c-.5.7-.9 1.4-1.2 2h-3.5c-.2-.8-.3-1.9-.5-3-.2-1.2-.3-2.4-.5-3.8s-.3-2.8-.4-4.4c-.1-1.5-.2-3.1-.3-4.7h4.4v2.4c0 .8 0 1.7.1 2.6 0 .9.1 1.8.1 2.8.1.9.1 1.9.2 2.8.5-.8 1-1.7 1.5-2.6.5-.9 1-1.8 1.4-2.8.5-.9.9-1.8 1.3-2.7.4-.9.7-1.7 1-2.5h3.8c0 1.5 0 3.1.1 4.9 0 1.8.2 3.7.4 5.7.5-.9 1-1.8 1.5-2.8.5-1 .9-1.9 1.3-2.8.4-.9.7-1.8 1.1-2.7.3-.8.6-1.6.8-2.3h4.8c-.4 1-.9 2.1-1.4 3.4-.6 1.3-1.2 2.6-1.9 4s-1.5 2.8-2.5 4.3c-.9 1.5-1.9 2.9-3 4.3h-3.5c-.2-1.7-.4-3.2-.5-4.8-.3-1.5-.4-3-.4-4.6zM110.4 53.9c.3-.1.7-.2 1.1-.3.4-.1.9-.3 1.4-.4.5-.1 1.1-.2 1.7-.3.6-.1 1.4-.1 2.2-.1 2.4 0 4 .7 4.9 2.1.9 1.4 1 3.2.5 5.6l-2.1 8.6h-4.5l2-8.4.3-1.5c.1-.5.1-.9 0-1.3s-.3-.7-.6-.9c-.3-.2-.7-.3-1.3-.3-.6 0-1.2.1-1.8.2l-2.9 12.3h-4.5l3.6-15.3zM127.8 62.8c0-1.3.2-2.5.7-3.8.5-1.2 1.1-2.3 1.9-3.2.8-.9 1.8-1.7 3-2.3 1.2-.6 2.5-.9 3.9-.9.7 0 1.4.1 2 .3.6.2 1.1.5 1.6.9s.8.9 1.1 1.4c.3.6.4 1.2.4 1.9 0 1.1-.3 2.1-.8 2.9-.5.8-1.2 1.4-2.1 1.9-.9.5-2 .9-3.2 1.1-1.2.2-2.6.3-4 .3.1.8.4 1.4.9 1.8.5.4 1.2.5 2.3.5.6 0 1.3-.1 2-.2s1.3-.3 1.9-.5l.3 3.5c-.6.2-1.3.4-2.2.6-.9.2-1.8.3-2.9.3-1.3 0-2.3-.2-3.2-.5-.9-.4-1.6-.8-2.1-1.4-.5-.6-.9-1.3-1.2-2.1-.1-.7-.3-1.6-.3-2.5zm8.8-6.5c-1 0-1.9.4-2.7 1.1-.8.7-1.3 1.7-1.5 2.9 1.3 0 2.3-.1 3-.3.8-.2 1.4-.4 1.8-.6.4-.2.7-.5.8-.8.1-.3.2-.6.2-.8.1-1-.5-1.5-1.6-1.5zM152.6 69.5c-1 0-1.9-.2-2.6-.5-.7-.3-1.3-.8-1.8-1.4-.5-.6-.8-1.3-1-2.1-.2-.8-.3-1.6-.3-2.6 0-1.4.2-2.7.7-3.9.5-1.2 1.2-2.3 2-3.2.9-.9 1.9-1.6 3.1-2.1 1.2-.5 2.5-.8 3.9-.8.4 0 .7 0 1 .1.3 0 .6.1 1 .2l1.6-6.8 4.7-.7-4 16.6c-.3 1.2-.4 2.3-.2 3.5.1 1.2.4 2.2.7 3.1l-4 .6c-.1-.2-.2-.5-.3-.7-.1-.2-.2-.5-.3-.8-.6.5-1.2.8-1.9 1.2-.7.1-1.5.3-2.3.3zm5.2-12.7c-.1 0-.2 0-.3-.1h-1.1c-.7 0-1.4.2-2 .5-.6.3-1.1.8-1.6 1.3-.4.6-.8 1.2-1 1.9-.2.7-.4 1.4-.4 2.2 0 1 .2 1.7.5 2.3.3.6.9.8 1.8.8.5 0 .9-.1 1.3-.3.4-.2.8-.5 1.2-.9 0-.5.1-1 .2-1.6.1-.6.2-1.1.3-1.5l1.1-4.6zM187.7 52.8c1 0 1.8.2 2.5.5s1.3.8 1.8 1.4c.5.6.8 1.3 1 2.1.2.8.3 1.6.3 2.5 0 1.4-.3 2.7-.8 3.9-.5 1.2-1.2 2.3-2.1 3.2-.9.9-1.9 1.6-3.1 2.2-1.2.5-2.5.8-3.9.8h-1c-.5 0-1-.1-1.6-.1-.6-.1-1.2-.2-1.9-.4s-1.3-.4-1.9-.7l5.2-22 4.7-.7-1.9 7.8c.4-.2.8-.3 1.2-.4.6 0 1.1-.1 1.5-.1zm-3.9 13c.7 0 1.4-.2 2-.5.6-.3 1.2-.8 1.6-1.4.5-.6.8-1.2 1.1-2 .3-.7.4-1.5.4-2.3 0-1-.2-1.7-.5-2.3-.3-.5-.9-.8-1.8-.8-.3 0-.7.1-1.1.2-.5.1-.9.3-1.2.6l-2 8.3c.1 0 .2 0 .3.1h.7c.1.1.3.1.5.1zM214 53.1c-.6 1.5-1.1 3-1.7 4.3-.6 1.3-1.2 2.6-1.8 3.8-.6 1.2-1.3 2.3-1.9 3.4-.7 1.1-1.4 2.2-2.1 3.2-.5.8-1.1 1.6-1.7 2.4-.6.8-1.2 1.5-2 2.2-.7.6-1.5 1.2-2.4 1.6-.9.4-1.9.6-3 .6-.7 0-1.3-.1-1.8-.2s-1-.3-1.4-.5l1.4-3.5c.4.2.8.3 1.1.4.3.1.7.1 1.2.1.7 0 1.4-.2 2-.7.6-.5 1.2-1.1 1.6-1.8-.5-2-1-4.3-1.4-6.8-.4-2.5-.7-5.3-.9-8.5h4.6c0 .8.1 1.7.1 2.6.1.9.1 1.9.2 2.9s.2 1.9.3 2.8c.1.9.2 1.7.3 2.5 1-1.5 1.8-3.1 2.6-4.8.7-1.8 1.4-3.7 2.1-5.9l4.6-.1z"/></g></svg>