<svg id="Layer_1" xmlns="http://www.w3.org/2000/svg" xmlns:xlink="http://www.w3.org/1999/xlink" viewBox="0 0 88 87.9"><style>.st0{clip-path:url(#SVGID_2_);fill:url(#SVGID_3_)}.st1,.st2{clip-path:url(#SVGID_5_);fill:none;stroke:#fff;stroke-width:2;stroke-miterlimit:10}.st2{clip-path:url(#SVGID_7_)}</style><defs><path id="SVGID_1_" d="M43.8 5.8c-15.5.1-30 9.6-35.6 25-7.3 19.8 2.8 41.7 22.6 49s41.7-2.8 49-22.6c1.6-4.3 2.3-8.7 2.4-13v-.4c-.1-15.5-9.6-30-25-35.6-4.3-1.6-8.7-2.3-13-2.4h-.4z"/></defs><clipPath id="SVGID_2_"><use xlink:href="#SVGID_1_" overflow="visible"/></clipPath><linearGradient id="SVGID_3_" gradientUnits="userSpaceOnUse" x1="-141.446" y1="-419.74" x2="-140.446" y2="-419.74" gradientTransform="scale(-76.3346 76.3346) rotate(-20.25 1106.201 -602.627)"><stop offset="0" stop-color="#087ea6"/><stop offset="1" stop-color="#1ba3c3"/></linearGradient><path class="st0" d="M108.5 15.5L10.6-20.6l-36.2 97.9 98 36.1z"/><g><defs><path id="SVGID_4_" d="M5.8 5.8h76.4v76.4H5.8z"/></defs><clipPath id="SVGID_5_"><use xlink:href="#SVGID_4_" overflow="visible"/></clipPath><path class="st1" d="M44.4 36.4h-4m-9 0h-4m15 0v-7.2c0-3.6-3-6.7-6.5-6.7s-6.5 3.1-6.5 6.7v7.2m33 10h-4m-7 0h-4m13 0v6c0 3-2.5 5.6-5.5 5.6s-5.5-2.6-5.5-5.6v-6m17-5h-23v24h23v-24zm-16-2v-8h-29v34h20"/><g><defs><path id="SVGID_6_" d="M5.8 5.8h76.4v76.4H5.8z"/></defs><clipPath id="SVGID_7_"><use xlink:href="#SVGID_6_" overflow="visible"/></clipPath><path class="st2" d="M35 52.6l-2.5-2.8-2.4 2.7c-.9 1-2.3 2.3-2.3 4 0 2.6 2.1 4.7 4.7 4.7s4.7-2.1 4.7-4.7c0-1.7-1.1-2.8-2.2-3.9z"/></g></g></svg>