<svg id="Layer_1" xmlns="http://www.w3.org/2000/svg" xmlns:xlink="http://www.w3.org/1999/xlink" viewBox="0 0 88 87.9"><style>.st0{clip-path:url(#SVGID_2_);fill:url(#SVGID_3_)}.st1{clip-path:url(#SVGID_5_)}.st1,.st2{fill:none;stroke:#fff;stroke-width:2;stroke-miterlimit:10}</style><defs><path id="SVGID_1_" d="M43.8 5.8c-15.5.1-30 9.6-35.6 25-7.3 19.8 2.8 41.7 22.6 49s41.7-2.8 49-22.6c1.6-4.3 2.3-8.7 2.4-13v-.4c-.1-15.5-9.6-30-25-35.6-4.3-1.6-8.7-2.3-13-2.4h-.4z"/></defs><clipPath id="SVGID_2_"><use xlink:href="#SVGID_1_" overflow="visible"/></clipPath><linearGradient id="SVGID_3_" gradientUnits="userSpaceOnUse" x1="-141.446" y1="-419.74" x2="-140.446" y2="-419.74" gradientTransform="scale(-76.3346 76.3346) rotate(-20.25 1106.2 -602.628)"><stop offset="0" stop-color="#087ea6"/><stop offset="1" stop-color="#1ba3c3"/></linearGradient><path class="st0" d="M108.5 15.5L10.6-20.6l-36.2 97.8 98 36.2z"/><g><defs><path id="SVGID_4_" d="M5.8 5.8h76.4v76.4H5.8z"/></defs><clipPath id="SVGID_5_"><use xlink:href="#SVGID_4_" overflow="visible"/></clipPath><path class="st1" d="M26.6 32c3.9-5.3 10.1-8.7 17.2-8.7 11.8 0 21.3 9.6 21.3 21.3 0 9.2-5.8 17-13.9 20m5-19.5h-8v-1.4l3.9-6.6h2.1v12m-8-1h-7v-.9l3-3c.9-.8 1.4-1.5 1.8-1.9s.6-.9.8-1.3c.2-.4.2-.8.2-1.3 0-.6-.4-1.9-2.2-2.3-1.7-.4-3.5.5-4.5 2.1"/></g><path class="st2" d="M33.8 54.4v-13h-6v13h-4l7 9 7-9z"/></svg>